<svg width="20" height="20" viewBox="0 0 20 20" fill="none" xmlns="http://www.w3.org/2000/svg">
<g filter="url(#filter0_b)">
<rect width="20" height="20" rx="2.85714" fill="url(#paint0_linear)"/>
</g>
<path d="M6.56893 7.60966C6.59072 6.70313 6.9094 5.97733 7.52495 5.43226C8.14052 4.8824 8.99034 4.60902 10.0744 4.61214C11.0961 4.61508 11.9204 4.87647 12.5473 5.39633C13.1742 5.91139 13.4865 6.58144 13.4841 7.40648C13.4826 7.93892 13.3541 8.40384 13.0987 8.80124C12.8434 9.19385 12.4562 9.5405 11.9373 9.84121C11.4569 10.118 11.1324 10.3665 10.9638 10.5867C10.7953 10.8069 10.7105 11.0944 10.7095 11.4494L10.7084 11.8307L8.80171 11.8253L8.78852 11.4079C8.74216 10.8513 8.82022 10.3935 9.02272 10.0343C9.23001 9.67513 9.58592 9.34757 10.0904 9.05162C10.5565 8.77475 10.8738 8.52623 11.0423 8.30606C11.2157 8.0859 11.3028 7.80554 11.3038 7.46497C11.3048 7.11961 11.1785 6.83623 10.9249 6.61485C10.6761 6.39348 10.3478 6.28221 9.9401 6.28104C9.52758 6.27985 9.19385 6.40121 8.93892 6.64512C8.684 6.88422 8.54397 7.20761 8.51881 7.61526L6.56893 7.60966ZM10.6059 14.946C10.3751 15.1612 10.0965 15.2683 9.77037 15.2674C9.44419 15.2664 9.16629 15.1577 8.93666 14.9412C8.71185 14.7199 8.5999 14.4509 8.60081 14.1343C8.60172 13.8178 8.71521 13.5519 8.94127 13.3367C9.17215 13.1167 9.45068 13.0071 9.77686 13.0081C10.103 13.009 10.3809 13.1201 10.6105 13.3415C10.8402 13.558 10.9545 13.8245 10.9536 14.1411C10.9527 14.4577 10.8368 14.726 10.6059 14.946Z" fill="#525252"/>
<defs>
<filter id="filter0_b" x="-6.08696" y="-6.08696" width="32.1739" height="32.1739" filterUnits="userSpaceOnUse" color-interpolation-filters="sRGB">
<feFlood flood-opacity="0" result="BackgroundImageFix"/>
<feGaussianBlur in="BackgroundImage" stdDeviation="3.04348"/>
<feComposite in2="SourceAlpha" operator="in" result="effect1_backgroundBlur"/>
<feBlend mode="normal" in="SourceGraphic" in2="effect1_backgroundBlur" result="shape"/>
</filter>
<linearGradient id="paint0_linear" x1="3.11659" y1="-63.2467" x2="59.8266" y2="-23.6334" gradientUnits="userSpaceOnUse">
<stop/>
<stop offset="1" stop-color="#9B9B9B" stop-opacity="0"/>
</linearGradient>
</defs>
</svg>
