<svg width="151" height="150" viewBox="0 0 151 150" fill="none" xmlns="http://www.w3.org/2000/svg">
<circle cx="75.7305" cy="75" r="75" fill="#181818"/>
<path d="M68.503 75.9065L68.5128 72.5081L73.4346 72.5222C76.1885 72.5302 78.4368 71.7749 80.1795 70.2565C81.9221 68.738 82.7968 66.7972 82.8036 64.4339C82.8103 62.1097 81.9856 60.2323 80.3296 58.8018C78.6931 57.3517 76.4686 56.6227 73.6561 56.6146C71.039 56.6071 68.8689 57.3235 67.146 58.7639C65.4231 60.2042 64.4509 62.096 64.2293 64.4391L60.3621 64.428C60.6258 61.0303 61.9814 58.29 64.4288 56.2072C66.8957 54.1245 70.0334 53.0886 73.842 53.0995C77.5725 53.1102 80.675 54.1445 83.1496 56.2024C85.6242 58.2408 86.857 60.8225 86.848 63.9475C86.8404 66.5842 86.043 68.7987 84.4559 70.591C82.8687 72.3833 80.717 73.5197 78.0007 74.0002L78.0004 74.1174C81.242 74.322 83.8171 75.3646 85.7258 77.2451C87.6541 79.1061 88.6139 81.5307 88.6053 84.519C88.5986 86.8628 87.948 88.9703 86.6535 90.8416C85.3591 92.7128 83.5971 94.1629 81.3676 95.1916C79.138 96.2204 76.6659 96.7308 73.951 96.723C69.7323 96.7109 66.2882 95.617 63.6186 93.4414C60.9491 91.2657 59.5509 88.4687 59.424 85.0504L63.2911 85.0615C63.4405 87.4447 64.4896 89.4009 66.4383 90.9299C68.4067 92.4395 70.9045 93.1986 73.9318 93.2073C76.9982 93.2162 79.5298 92.4129 81.5267 90.7975C83.5235 89.1822 84.5255 87.1245 84.5327 84.6245C84.5405 81.9292 83.57 79.8073 81.6213 78.2587C79.6726 76.7101 76.9991 75.9309 73.6007 75.9212L68.503 75.9065Z" fill="#FF9618"/>
</svg>
