<svg width="151" height="150" viewBox="0 0 151 150" fill="none" xmlns="http://www.w3.org/2000/svg">
<circle cx="75.8125" cy="75" r="75" fill="#181818"/>
<path d="M62.2944 65.5701C62.3243 61.9765 63.6219 59.0017 66.1873 56.6457C68.7722 54.2704 71.9983 53.0882 75.8655 53.0993C79.5569 53.1099 82.6689 54.2322 85.2015 56.466C87.7342 58.6999 88.9958 61.4379 88.9865 64.6801C88.9799 66.9847 88.329 69.2192 87.0337 71.3835C85.758 73.5282 83.3571 76.4217 79.831 80.064L68.0183 92.3348L68.018 92.4519L89.9905 92.5151L89.9802 96.0893L62.412 96.0101L62.4201 93.1976L77.4068 77.4496C80.4433 74.2747 82.462 71.8488 83.4629 70.172C84.4834 68.4953 84.9962 66.7389 85.0015 64.903C85.0081 62.5983 84.1153 60.6426 82.323 59.0359C80.5308 57.4292 78.3358 56.6221 75.7382 56.6146C73.0233 56.6068 70.7553 57.4597 68.9339 59.1732C67.1322 60.8672 66.2081 63.0033 66.1616 65.5813L66.1615 65.6106L62.2943 65.5994L62.2944 65.5701Z" fill="#FF9618"/>
</svg>
