<svg width="25" height="18" viewBox="0 0 25 18" fill="none" xmlns="http://www.w3.org/2000/svg">
<path d="M23.3906 1.68365L23.3905 1.6837L23.3964 1.68985C23.6803 1.98399 23.902 2.51545 24.0536 3.04209C24.126 3.29371 24.1767 3.52371 24.2093 3.69075C24.2256 3.774 24.2372 3.84091 24.2446 3.88622C24.2483 3.90886 24.251 3.92605 24.2526 3.93714L24.2542 3.94765L24.2542 3.94787L24.2562 3.96444L24.2639 4.03169C24.2706 4.09098 24.2802 4.17847 24.2917 4.29014C24.3148 4.51353 24.3457 4.83333 24.3766 5.21732C24.4385 5.98659 24.5 7.00763 24.5 8.02462V9.96645C24.5 10.9839 24.4385 12.005 24.3766 12.7742C24.3457 13.1582 24.3148 13.4779 24.2917 13.7012C24.2802 13.8129 24.2706 13.9003 24.2639 13.9596L24.2562 14.0268L24.2542 14.0434L24.2542 14.0436L24.2526 14.0541C24.251 14.0652 24.2483 14.0824 24.2446 14.105C24.2372 14.1503 24.2256 14.2172 24.2093 14.3005C24.1767 14.4675 24.126 14.6975 24.0536 14.9491C23.9021 15.4757 23.6803 16.0072 23.3964 16.3015L23.3963 16.3014L23.3906 16.3076C22.6671 17.0835 21.8932 17.1632 21.3633 17.2178C21.307 17.2236 21.2535 17.2292 21.203 17.2352C19.4697 17.3631 17.2987 17.4295 15.5541 17.4637C14.681 17.4809 13.9168 17.49 13.3711 17.4947C13.0982 17.4971 12.88 17.4984 12.7302 17.4992L12.5583 17.4998L12.514 17.5L12.5029 17.5L12.5001 17.5L12.5001 17.5L12.4862 17.4998L12.4316 17.4993L12.2224 17.497C12.0411 17.495 11.7798 17.4919 11.46 17.4875C10.8202 17.4787 9.94649 17.465 9.01061 17.4451C7.14295 17.4055 5.05616 17.3419 4.07034 17.247C3.94644 17.2243 3.81261 17.207 3.67177 17.1888C3.0376 17.1069 2.26122 17.0067 1.60852 16.3073L1.60857 16.3072L1.60278 16.3012C1.31902 16.0071 1.09742 15.4758 0.946078 14.9491C0.873775 14.6975 0.823101 14.4675 0.790574 14.3005C0.774363 14.2173 0.762795 14.1504 0.755391 14.1051C0.751692 14.0824 0.74904 14.0652 0.747376 14.0541L0.74579 14.0434L0.745783 14.0433L0.743814 14.0266L0.736113 13.9594C0.729435 13.9001 0.719834 13.8127 0.708282 13.701C0.685172 13.4777 0.654288 13.158 0.623389 12.774C0.561486 12.0049 0.5 10.9838 0.5 9.96645L0.5 8.02462C0.5 7.00763 0.561485 5.98659 0.623389 5.21732C0.654289 4.83333 0.685173 4.51353 0.708283 4.29014C0.719835 4.17847 0.729437 4.09098 0.736115 4.03169L0.743817 3.96444L0.745784 3.94772L0.745793 3.94765L0.747375 3.93694C0.749039 3.92585 0.751691 3.90866 0.75539 3.88603C0.762794 3.84073 0.774362 3.77383 0.790572 3.69059C0.823099 3.52357 0.873773 3.29361 0.946077 3.04201C1.09741 2.51543 1.31902 1.984 1.60282 1.68981L1.60287 1.68985L1.60852 1.6838C2.33379 0.906633 3.10888 0.827715 3.63852 0.773789C3.694 0.76814 3.74679 0.762765 3.79655 0.756891C5.52961 0.628959 7.69926 0.564577 9.44265 0.5323C10.315 0.516149 11.0784 0.508072 11.6236 0.504034C11.8962 0.502016 12.1142 0.501007 12.2639 0.500503L12.4355 0.500063L12.4798 0.500008L12.4909 0.500001L12.4937 0.5L12.4943 0.5H12.4945L12.4945 0V0.5H12.5055V0L12.5055 0.5H12.5057L12.5063 0.5L12.5091 0.500001L12.5202 0.500008L12.5645 0.500063L12.7361 0.500503C12.8858 0.501007 13.1038 0.502016 13.3764 0.504034C13.9216 0.508072 14.685 0.516149 15.5573 0.5323C17.3007 0.564577 19.4704 0.628958 21.2034 0.756887C21.2532 0.762773 21.306 0.768158 21.3616 0.773819C21.8909 0.827771 22.6662 0.90679 23.3906 1.68365ZM9.41875 12.3195L9.41884 13.1506L10.1531 12.7611L16.907 9.17825L17.7368 8.73805L16.9082 8.29552L10.1535 4.68781L9.41788 4.2949L9.41797 5.1289L9.41875 12.3195Z" fill="#FF0000" stroke="black"/>
</svg>
